<svg xmlns="http://www.w3.org/2000/svg" viewBox="0 0 64 64" role="img" aria-labelledby="title desc">
  <title id="title">Ranking avatar icon</title>
  <desc id="desc">A podium and star inside a glowing round violet gold avatar for a ranking function.</desc>
  <defs>
    <radialGradient id="bg" cx="28%" cy="22%" r="78%">
      <stop offset="0%" stop-color="#9A7CFF"/>
      <stop offset="45%" stop-color="#4C4AE8"/>
      <stop offset="100%" stop-color="#1A172D"/>
    </radialGradient>
    <linearGradient id="gold" x1="17" y1="15" x2="48" y2="48" gradientUnits="userSpaceOnUse">
      <stop stop-color="#FFEAA0"/>
      <stop offset="0.45" stop-color="#FFD45F"/>
      <stop offset="1" stop-color="#FF9C3F"/>
    </linearGradient>
    <linearGradient id="silver" x1="12" y1="30" x2="24" y2="47" gradientUnits="userSpaceOnUse">
      <stop stop-color="#FFFFFF"/>
      <stop offset="1" stop-color="#BFD0FF"/>
    </linearGradient>
    <filter id="shadow" x="-40%" y="-40%" width="180%" height="180%">
      <feDropShadow dx="0" dy="8" stdDeviation="7" flood-color="#000" flood-opacity="0.42"/>
      <feDropShadow dx="0" dy="0" stdDeviation="4" flood-color="#FFC95C" flood-opacity="0.35"/>
    </filter>
  </defs>
  <circle cx="32" cy="32" r="30" fill="#151322"/>
  <circle cx="32" cy="32" r="27.5" fill="url(#bg)" filter="url(#shadow)"/>
  <circle cx="32" cy="32" r="26.5" fill="none" stroke="#FFFFFF" stroke-width="2" opacity="0.16"/>
  <path d="M32 11.9 34.9 18l6.7.9-4.9 4.7 1.2 6.7-5.9-3.2-5.9 3.2 1.2-6.7-4.9-4.7 6.7-.9L32 11.9Z" fill="url(#gold)" stroke="#FFF6C8" stroke-width="1" stroke-linejoin="round"/>
  <rect x="25.2" y="30.2" width="13.6" height="16.8" rx="3.2" fill="url(#gold)"/>
  <rect x="12.8" y="35.5" width="12.2" height="11.5" rx="3" fill="url(#silver)" opacity="0.95"/>
  <rect x="39" y="39" width="12.2" height="8" rx="3" fill="url(#silver)" opacity="0.72"/>
  <path d="M13.2 49.6h37.6" fill="none" stroke="#FFFFFF" stroke-width="3.8" stroke-linecap="round" opacity="0.85"/>
  <path d="M29 37.5h6" stroke="#5D3A00" stroke-width="2.2" stroke-linecap="round" opacity="0.5"/>
</svg>
