<svg width="24" height="24" viewBox="0 0 24 24" fill="none" xmlns="http://www.w3.org/2000/svg">
  <g stroke="currentColor" stroke-width="1.8" stroke-linecap="round" stroke-linejoin="round">
    <path d="M6 13.2V12C6 8.7 8.7 6 12 6C15.3 6 18 8.7 18 12V13.2"/>
    <path d="M6.2 13.2H5.6C4.5 13.2 3.6 14.1 3.6 15.2V16.2C3.6 17.3 4.5 18.2 5.6 18.2H6.9V13.2H6.2Z"/>
    <path d="M17.8 13.2H17.1V18.2H18.4C19.5 18.2 20.4 17.3 20.4 16.2V15.2C20.4 14.1 19.5 13.2 18.4 13.2H17.8Z"/>
    <path d="M17.1 18C16 19.9 14.2 21 12.2 21C10.8 21 9.4 20.5 8.2 19.4"/>
    <path d="M11.2 10.9C11.2 10.2 11.7 9.6 12.5 9.6C13.2 9.6 13.8 10.1 13.8 10.9C13.8 11.5 13.5 11.9 12.9 12.3C12.4 12.6 12.1 13 12.1 13.7"/>
    <circle cx="12.1" cy="15.6" r="0.8" fill="currentColor" stroke="none"/>
  </g>
</svg>
