<svg width="64" height="64" viewBox="0 0 64 64" fill="none" xmlns="http://www.w3.org/2000/svg">
  <defs>
    <radialGradient id="bg3" cx="0" cy="0" r="1" gradientUnits="userSpaceOnUse" gradientTransform="translate(21 17) rotate(45) scale(54)">
      <stop stop-color="#2563EB" stop-opacity="0.26"/>
      <stop offset="0.48" stop-color="#2A2946"/>
      <stop offset="1" stop-color="#171726"/>
    </radialGradient>
    <linearGradient id="stroke3" x1="19" y1="17" x2="47" y2="47" gradientUnits="userSpaceOnUse">
      <stop stop-color="#E2E8F0"/>
      <stop offset="0.5" stop-color="#A78BFA"/>
      <stop offset="1" stop-color="#60A5FA"/>
    </linearGradient>
    <filter id="shadow3" x="-20" y="-20" width="104" height="104" filterUnits="userSpaceOnUse" color-interpolation-filters="sRGB">
      <feDropShadow dx="0" dy="8" stdDeviation="8" flood-color="#3B82F6" flood-opacity="0.22"/>
    </filter>
  </defs>
  <circle cx="32" cy="32" r="29" fill="url(#bg3)"/>
  <circle cx="32" cy="32" r="28.5" stroke="#60A5FA" stroke-opacity="0.14"/>
  <g filter="url(#shadow3)" stroke="url(#stroke3)" stroke-width="2.5" stroke-linecap="round" stroke-linejoin="round">
    <path d="M21 34V31.5C21 25.1 26.1 20 32.5 20C38.9 20 44 25.1 44 31.5V34"/>
    <path d="M21.5 33.5H21C18.8 33.5 17 35.3 17 37.5V39.5C17 41.7 18.8 43.5 21 43.5H23.5V33.5H21.5Z"/>
    <path d="M43 33.5H41.5V43.5H44C46.2 43.5 48 41.7 48 39.5V37.5C48 35.3 46.2 33.5 44 33.5H43Z"/>
    <path d="M41.5 43C39.4 46.8 35.8 49 32 49C29.1 49 26.5 47.9 24.4 45.9"/>
    <path d="M31 29.5C31 28.1 32 27 33.4 27C34.8 27 35.8 28 35.8 29.4C35.8 30.5 35.2 31.3 34.1 31.9C33.1 32.5 32.5 33.2 32.5 34.5"/>
    <circle cx="32.5" cy="38.2" r="1.2" fill="#DDEAFE" stroke="none"/>
  </g>
</svg>
