<svg width="24" height="24" viewBox="0 0 24 24" fill="currentColor" xmlns="http://www.w3.org/2000/svg">
  <path d="M12 8.1a3.9 3.9 0 1 1 0 7.8 3.9 3.9 0 0 1 0-7.8Zm0 1.75a2.15 2.15 0 1 0 0 4.3 2.15 2.15 0 0 0 0-4.3Z"/>
  <path d="M13.3 2.75a1.15 1.15 0 0 1 1.08.78l.45 1.33c.38.16.75.37 1.09.61l1.37-.29a1.15 1.15 0 0 1 1.2.54l1.3 2.25a1.15 1.15 0 0 1-.13 1.31l-.92 1.04a7.46 7.46 0 0 1 0 1.36l.92 1.04c.33.37.38.9.13 1.31l-1.3 2.25a1.15 1.15 0 0 1-1.2.54l-1.37-.29c-.34.24-.71.45-1.09.61l-.45 1.33a1.15 1.15 0 0 1-1.08.78h-2.6a1.15 1.15 0 0 1-1.08-.78l-.45-1.33a7.02 7.02 0 0 1-1.09-.61l-1.37.29a1.15 1.15 0 0 1-1.2-.54l-1.3-2.25a1.15 1.15 0 0 1 .13-1.31l.92-1.04a7.46 7.46 0 0 1 0-1.36l-.92-1.04a1.15 1.15 0 0 1-.13-1.31l1.3-2.25a1.15 1.15 0 0 1 1.2-.54l1.37.29c.34-.24.71-.45 1.09-.61l.45-1.33a1.15 1.15 0 0 1 1.08-.78h2.6Zm-.36 1.8h-1.88l-.5 1.5a.9.9 0 0 1-.57.56c-.52.18-1 .46-1.43.82a.9.9 0 0 1-.76.19l-1.55-.33-.94 1.62 1.04 1.17a.9.9 0 0 1 .2.77 5.71 5.71 0 0 0 0 1.72.9.9 0 0 1-.2.77L5.3 14.5l.94 1.62 1.55-.33a.9.9 0 0 1 .76.19c.43.36.91.64 1.43.82.27.09.48.3.57.56l.5 1.5h1.88l.5-1.5a.9.9 0 0 1 .57-.56c.52-.18 1-.46 1.43-.82a.9.9 0 0 1 .76-.19l1.55.33.94-1.62-1.04-1.17a.9.9 0 0 1-.2-.77 5.71 5.71 0 0 0 0-1.72.9.9 0 0 1 .2-.77l1.04-1.17-.94-1.62-1.55.33a.9.9 0 0 1-.76-.19A5.32 5.32 0 0 0 14 6.61a.9.9 0 0 1-.57-.56l-.5-1.5Z"/>
</svg>
