<svg width="24" height="24" viewBox="0 0 24 24" fill="none" xmlns="http://www.w3.org/2000/svg">
  <g stroke="currentColor" stroke-width="1.8" stroke-linecap="round" stroke-linejoin="round">
    <path d="M8.5 3.6C6 3.6 4.4 5.4 4.4 7.7C4.4 10 6.1 11.6 8 11.6H9.5V14.2L11.8 12.3V7.7C11.8 5.4 10.7 3.6 8.5 3.6Z"/>
    <path d="M15.5 3.6C18 3.6 19.6 5.4 19.6 7.7C19.6 10 17.9 11.6 16 11.6H14.5V14.2L12.2 12.3V7.7C12.2 5.4 13.3 3.6 15.5 3.6Z"/>
    <path d="M8.5 20.4C6 20.4 4.4 18.6 4.4 16.3C4.4 14 6.1 12.4 8 12.4H9.5V9.8L11.8 11.7V16.3C11.8 18.6 10.7 20.4 8.5 20.4Z" opacity="0.92"/>
    <path d="M15.5 20.4C18 20.4 19.6 18.6 19.6 16.3C19.6 14 17.9 12.4 16 12.4H14.5V9.8L12.2 11.7V16.3C12.2 18.6 13.3 20.4 15.5 20.4Z" opacity="0.92"/>
  </g>
</svg>
